<?xml version="1.0" standalone="no"?>
<!DOCTYPE svg PUBLIC "-//W3C//DTD SVG 20010904//EN"
 "http://www.w3.org/TR/2001/REC-SVG-20010904/DTD/svg10.dtd">
<svg version="1.0" xmlns="http://www.w3.org/2000/svg"
 width="1024.000000pt" height="1024.000000pt" viewBox="0 0 1024.000000 1024.000000"
 preserveAspectRatio="xMidYMid meet">

<g transform="translate(0.000000,1024.000000) scale(0.100000,-0.100000)"
fill="#000000" stroke="none">
<path d="M4492 8698 c-41 -52 -94 -217 -116 -358 -29 -189 -29 -391 0 -645 l6
-61 -67 -16 -68 -16 -91 77 c-454 383 -1109 720 -1624 836 -178 41 -178 41
-169 -300 14 -489 119 -992 301 -1430 49 -117 180 -377 245 -485 59 -98 61
-91 -49 -143 -56 -27 -78 -32 -165 -35 -55 -2 -124 1 -154 6 -102 19 -124 -12
-96 -130 89 -369 336 -709 605 -836 41 -20 77 -37 79 -38 2 -2 -22 -31 -54
-66 -153 -168 -236 -352 -264 -582 -10 -82 -8 -100 17 -128 22 -26 35 -23 146
31 56 27 115 52 132 56 l32 6 7 -58 c37 -308 177 -668 376 -965 61 -91 215
-290 228 -296 4 -1 13 31 22 72 l15 75 -44 52 c-158 190 -351 553 -415 779
-30 108 -57 252 -64 342 -8 118 -20 133 -102 123 -31 -4 -94 -19 -139 -34
l-84 -28 7 43 c27 181 157 399 298 499 84 59 107 81 107 103 0 35 -25 52 -105
72 -102 24 -145 42 -225 96 -125 83 -210 177 -306 341 -50 85 -124 253 -138
314 l-6 27 118 4 c130 5 214 28 290 79 24 16 45 29 46 29 2 0 31 -37 64 -82
79 -108 98 -128 126 -128 28 0 56 29 56 57 0 11 -30 63 -67 114 -204 288 -351
559 -458 844 -168 447 -244 823 -261 1288 l-7 180 114 -78 c285 -196 466 -342
663 -535 202 -197 353 -381 510 -622 85 -130 166 -266 166 -277 0 -9 -75 -61
-88 -61 -15 0 -81 -61 -87 -80 -9 -30 19 -69 90 -125 85 -66 171 -117 262
-155 81 -34 110 -32 132 8 19 35 -9 62 -124 121 -119 60 -207 119 -199 132 2
4 30 22 62 40 125 70 124 73 -18 310 -291 481 -599 821 -1073 1182 -48 37 -83
67 -78 67 21 0 300 -121 462 -201 532 -262 933 -577 1227 -965 34 -45 69 -84
77 -88 47 -18 90 42 65 89 -22 41 -136 187 -215 275 l-76 85 58 13 c32 7 123
15 203 18 134 6 154 4 260 -21 63 -15 130 -30 148 -32 68 -11 79 38 32 152
-25 62 -26 70 -11 73 19 3 240 -58 321 -90 97 -37 263 -127 334 -180 58 -44
66 -53 50 -59 -10 -4 -57 -19 -104 -34 -363 -116 -688 -397 -912 -790 -77
-136 -175 -362 -214 -493 -3 -10 -13 -8 -41 7 -71 35 -311 120 -427 150 -222
58 -408 63 -563 16 -81 -24 -93 -39 -104 -125 -22 -180 66 -463 224 -715 115
-183 298 -401 530 -628 186 -182 239 -221 362 -263 88 -30 255 -43 330 -27 34
8 70 1 225 -39 289 -76 637 -149 878 -185 l53 -8 4 -68 c5 -83 28 -167 63
-227 39 -66 132 -154 191 -180 28 -13 51 -27 51 -30 0 -13 -116 -40 -173 -40
-44 0 -62 -5 -77 -20 -34 -34 -25 -58 53 -135 115 -113 154 -199 213 -473 9
-45 21 -82 25 -82 11 0 91 91 172 195 239 307 423 663 498 965 16 63 34 117
41 119 40 13 192 100 248 141 245 182 512 618 576 939 22 111 15 260 -15 351
-151 446 -643 960 -1291 1350 -62 37 -138 95 -187 140 -115 109 -252 175 -424
204 -33 6 -43 16 -100 103 -200 304 -339 472 -569 687 -188 175 -487 397 -674
499 -52 29 -97 35 -114 15z m258 -246 c223 -152 395 -297 585 -493 115 -118
265 -296 265 -313 0 -3 -27 8 -61 24 -129 66 -312 125 -492 160 -174 34 -195
15 -145 -127 12 -35 19 -65 16 -69 -3 -3 -23 0 -45 6 -21 7 -112 13 -203 15
l-165 4 -13 83 c-18 106 -19 437 -3 546 12 85 41 205 60 255 l11 29 47 -28
c26 -15 90 -57 143 -92z m1281 -1198 c62 -18 189 -82 189 -95 0 -5 -28 -9 -63
-9 -138 0 -356 -80 -528 -193 -312 -206 -564 -555 -715 -992 -15 -44 -28 -81
-29 -83 -4 -6 -255 119 -255 127 0 18 67 206 100 281 156 358 382 633 661 809
225 140 479 202 640 155z m381 -262 c185 -91 508 -319 698 -494 359 -329 566
-613 631 -865 42 -167 10 -335 -113 -578 -68 -135 -67 -133 -76 -118 -4 6 -44
12 -92 14 l-85 4 0 -35 0 -35 78 -3 c42 -2 77 -7 77 -11 0 -22 -33 -32 -92
-30 l-63 3 -3 -32 c-3 -29 -1 -31 35 -37 21 -4 41 -7 46 -8 4 -1 -23 -40 -59
-86 -141 -175 -337 -298 -540 -336 -239 -46 -690 -17 -1189 76 -206 39 -595
135 -595 148 1 3 25 23 56 44 30 21 80 68 110 105 216 261 218 646 5 912 -54
67 -152 151 -208 178 -18 9 -33 21 -33 28 0 7 21 68 46 136 50 133 141 322
200 415 108 170 302 374 444 466 207 134 348 178 546 174 102 -3 117 -6 176
-35z m-2467 -873 c147 -32 479 -149 608 -216 l39 -19 -79 -26 c-106 -35 -191
-87 -278 -169 l-73 -69 -182 152 c-101 84 -202 169 -225 188 -23 19 -76 64
-119 99 -42 35 -73 68 -69 72 24 24 246 17 378 -12z m-309 -215 c33 -27 141
-116 239 -199 98 -82 189 -159 202 -170 l24 -20 -30 -81 c-36 -99 -54 -222
-46 -317 l6 -72 -41 45 c-175 190 -346 448 -419 630 -37 93 -71 222 -71 269
l0 35 38 -36 c20 -19 64 -57 98 -84z m1199 -149 c161 -42 308 -161 379 -305
114 -234 71 -514 -106 -692 -105 -105 -216 -156 -358 -165 -112 -7 -187 8
-287 57 -65 32 -95 55 -152 116 -113 121 -161 245 -161 417 0 168 64 319 180
428 140 132 336 187 505 144z m1506 -1546 c178 -12 444 -7 512 10 46 11 46 8
11 -108 -79 -258 -220 -531 -403 -779 l-64 -87 -23 67 c-28 84 -66 159 -110
221 -20 27 -34 50 -32 52 2 2 27 10 57 19 73 21 129 56 178 109 61 66 43 107
-56 121 -106 16 -231 108 -272 201 -14 31 -24 78 -27 124 l-5 74 30 -6 c17 -3
108 -11 204 -18z"/>
<path d="M5877 6214 c-4 -4 -7 -20 -7 -35 0 -35 18 -41 119 -37 57 2 76 7 85
21 8 12 8 22 0 35 -9 14 -28 18 -101 20 -49 1 -92 0 -96 -4z"/>
<path d="M5718 6080 c-3 -16 -2 -32 0 -35 3 -3 30 -5 59 -5 l54 0 -3 33 c-3
31 -4 32 -54 35 -51 3 -52 2 -56 -28z"/>
<path d="M5877 6104 c-4 -4 -7 -20 -7 -36 l0 -29 103 3 102 3 0 30 0 30 -95 3
c-53 1 -99 0 -103 -4z"/>
<path d="M6127 6103 c-4 -3 -7 -19 -7 -35 l0 -28 100 0 100 0 0 35 0 35 -93 0
c-52 0 -97 -3 -100 -7z"/>
<path d="M5524 5986 c-12 -31 0 -51 31 -51 27 0 30 3 30 30 0 25 -4 30 -28 33
-17 2 -29 -2 -33 -12z"/>
<path d="M5630 5965 l0 -35 100 0 100 0 0 35 0 35 -100 0 -100 0 0 -35z"/>
<path d="M5870 5965 l0 -35 100 0 c97 0 100 1 106 24 3 14 3 30 -1 35 -4 7
-47 11 -106 11 l-99 0 0 -35z"/>
<path d="M6122 5968 l3 -33 98 -3 97 -3 0 36 0 35 -101 0 -100 0 3 -32z"/>
<path d="M5632 5891 c-8 -4 -12 -21 -10 -37 l3 -29 100 0 100 0 0 35 0 35 -90
3 c-49 1 -96 -2 -103 -7z"/>
<path d="M5883 5889 c-7 -7 -13 -20 -13 -29 0 -31 23 -40 106 -40 88 0 111 11
99 50 -6 17 -15 20 -73 20 -37 0 -76 3 -87 6 -11 3 -26 -1 -32 -7z"/>
<path d="M5524 5876 c-12 -31 0 -51 31 -51 27 0 30 3 30 30 0 25 -4 30 -28 33
-17 2 -29 -2 -33 -12z"/>
<path d="M6127 5883 c-4 -3 -7 -19 -7 -35 l0 -28 100 0 100 0 0 35 0 35 -93 0
c-52 0 -97 -3 -100 -7z"/>
<path d="M6367 5863 c-7 -37 -2 -43 39 -43 34 0 35 1 32 33 -3 28 -7 32 -34
35 -27 3 -32 0 -37 -25z"/>
<path d="M6124 5766 c-3 -8 -1 -24 6 -35 10 -19 20 -21 99 -21 82 0 89 2 94
21 12 44 1 49 -99 49 -73 0 -96 -3 -100 -14z"/>
<path d="M6364 5766 c-14 -36 0 -51 50 -54 56 -4 71 6 62 42 -6 24 -11 26 -57
26 -34 0 -51 -5 -55 -14z"/>
<path d="M6370 5666 c-6 -8 -10 -25 -8 -38 3 -20 9 -23 54 -26 49 -3 52 -2 59
25 5 20 2 31 -11 40 -24 17 -79 16 -94 -1z"/>
<path d="M6250 5651 c0 -36 12 -51 40 -51 22 0 29 5 33 27 7 37 2 43 -39 43
-27 0 -34 -4 -34 -19z"/>
<path d="M7161 5547 c-13 -6 -29 -20 -35 -30 -16 -26 33 -67 80 -67 47 0 89
-42 105 -104 6 -25 15 -46 20 -46 16 0 32 78 25 123 -8 51 -34 91 -74 111 -43
21 -94 27 -121 13z"/>
<path d="M5707 5274 c-14 -15 -6 -54 13 -64 53 -28 129 7 104 48 -11 18 -102
30 -117 16z"/>
<path d="M5750 5135 c0 -33 2 -35 34 -35 36 0 48 15 39 49 -4 16 -13 21 -39
21 -32 0 -34 -2 -34 -35z"/>
<path d="M5864 5146 c-8 -35 2 -46 42 -46 32 0 34 2 34 35 0 33 -2 35 -35 35
-28 0 -36 -4 -41 -24z"/>
<path d="M5874 5057 c-3 -9 -4 -26 -2 -39 3 -22 7 -23 97 -26 97 -3 124 5 103
31 -14 17 -68 33 -139 42 -43 6 -54 4 -59 -8z"/>
<path d="M6370 5025 l0 -35 99 0 c95 0 99 1 103 23 8 44 2 47 -103 47 l-99 0
0 -35z"/>
<path d="M5884 4934 c13 -49 23 -54 107 -54 l79 0 0 35 c0 34 -1 35 -42 35
-24 0 -67 3 -97 7 l-54 6 7 -29z"/>
<path d="M6374 4947 c-3 -9 -4 -26 -2 -39 3 -22 7 -23 100 -26 87 -2 97 -1
102 16 14 43 -1 52 -84 52 -43 0 -85 3 -94 6 -9 4 -18 0 -22 -9z"/>
<path d="M7114 4946 c-3 -8 -4 -25 -2 -38 3 -22 6 -23 103 -23 l100 0 0 35 0
35 -98 3 c-78 2 -98 0 -103 -12z"/>
<path d="M6127 4943 c-4 -3 -7 -19 -7 -35 l0 -28 99 0 c105 0 116 5 104 49 -5
19 -12 21 -97 21 -51 0 -96 -3 -99 -7z"/>
<path d="M6617 4929 c-9 -34 3 -49 38 -49 40 0 48 10 39 45 -5 20 -12 25 -39
25 -25 0 -34 -5 -38 -21z"/>
<path d="M6940 4841 c-65 -6 -65 -6 -68 -38 l-3 -33 78 0 c111 0 125 5 121 44
-3 35 -14 38 -128 27z"/>
<path d="M7117 4844 c-4 -4 -7 -20 -7 -36 l0 -29 103 3 102 3 0 30 0 30 -95 3
c-53 1 -99 0 -103 -4z"/>
<path d="M5990 4821 c0 -38 11 -51 46 -51 27 0 35 5 40 24 9 36 -2 46 -47 46
-32 0 -39 -4 -39 -19z"/>
<path d="M6122 4808 c3 -30 6 -33 33 -30 68 6 165 34 165 48 0 11 -21 14 -101
14 l-100 0 3 -32z"/>
<path d="M6502 4808 c3 -29 7 -33 34 -36 25 -2 33 1 37 18 9 36 -2 50 -40 50
-33 0 -34 -1 -31 -32z"/>
<path d="M6617 4826 c-3 -8 -3 -24 0 -35 5 -20 12 -21 104 -21 l99 0 0 35 0
35 -99 0 c-76 0 -100 -3 -104 -14z"/>
<path d="M6950 4741 l-75 -6 0 -35 0 -34 47 3 c25 1 68 6 95 9 45 7 48 9 48
37 0 34 -1 35 -115 26z"/>
<path d="M6625 4729 c-4 -5 -4 -21 -1 -34 5 -20 14 -24 69 -30 98 -11 121 -5
125 29 2 16 -2 32 -10 37 -19 13 -176 11 -183 -2z"/>
<path d="M6744 4616 c-13 -33 0 -51 39 -54 36 -3 37 -3 37 32 0 34 -2 36 -35
36 -22 0 -38 -6 -41 -14z"/>
<path d="M4374 5486 c-3 -8 -4 -25 -2 -38 3 -22 6 -23 93 -23 l90 0 0 35 0 35
-88 3 c-69 2 -88 0 -93 -12z"/>
<path d="M4387 5382 c-14 -3 -17 -11 -15 -35 l3 -32 90 0 90 0 3 33 c2 17 0
32 -5 32 -4 0 -39 2 -78 4 -38 1 -78 1 -88 -2z"/>
<path d="M4864 5376 c-3 -8 -4 -25 -2 -38 3 -22 6 -23 93 -23 l90 0 0 35 0 35
-88 3 c-69 2 -88 0 -93 -12z"/>
<path d="M4370 5235 l0 -36 93 3 92 3 3 33 3 32 -95 0 -96 0 0 -35z"/>
<path d="M4862 5238 l3 -33 93 -3 92 -3 0 36 0 35 -96 0 -95 0 3 -32z"/>
<path d="M4370 5125 l0 -35 96 0 95 0 -3 33 -3 32 -92 3 -93 3 0 -36z"/>
<path d="M4614 5146 c-3 -8 -4 -23 -2 -33 3 -16 15 -18 98 -18 l95 0 0 30 0
30 -93 3 c-74 2 -93 0 -98 -12z"/>
<path d="M4860 5125 l0 -35 95 0 95 0 0 35 0 35 -95 0 -95 0 0 -35z"/>
<path d="M4370 5015 l0 -35 95 0 95 0 0 35 0 35 -95 0 -95 0 0 -35z"/>
<path d="M4610 5015 l0 -36 98 3 97 3 3 33 3 32 -100 0 -101 0 0 -35z"/>
<path d="M4860 5015 l0 -35 95 0 95 0 0 35 0 35 -95 0 -95 0 0 -35z"/>
<path d="M4370 4905 l0 -36 93 3 92 3 0 30 0 30 -92 3 -93 3 0 -36z"/>
<path d="M4614 4926 c-3 -8 -4 -23 -2 -33 3 -16 15 -18 98 -18 l95 0 0 30 0
30 -93 3 c-74 2 -93 0 -98 -12z"/>
<path d="M4860 4905 l0 -35 95 0 95 0 0 35 0 35 -95 0 -95 0 0 -35z"/>
<path d="M2959 7629 c-25 -25 -21 -54 22 -201 57 -191 139 -354 258 -512 l77
-102 -62 -18 c-70 -20 -96 -43 -96 -81 0 -31 15 -55 83 -129 64 -71 152 -131
243 -168 85 -35 111 -35 132 -3 28 43 8 68 -100 119 -62 30 -115 64 -153 100
l-58 54 45 12 c112 29 150 52 150 92 0 8 -34 50 -76 93 -91 95 -146 170 -207
285 -65 121 -112 240 -137 350 -23 97 -43 130 -81 130 -10 0 -28 -9 -40 -21z"/>
<path d="M3774 4783 c-24 -25 -57 -103 -84 -203 -60 -215 -4 -560 89 -560 11
0 60 38 112 86 l93 87 22 -66 c41 -123 93 -206 185 -299 71 -74 91 -88 117
-88 21 0 35 7 42 19 21 40 11 66 -46 121 -107 106 -179 236 -209 378 -7 35
-19 70 -25 78 -25 29 -66 16 -148 -46 -43 -32 -85 -66 -92 -75 -7 -8 -16 -15
-20 -15 -4 0 -13 36 -20 81 -19 131 4 280 61 392 16 32 29 66 29 76 0 44 -72
68 -106 34z"/>
<path d="M4683 4245 c-60 -42 -93 -259 -158 -1020 -29 -338 -46 -489 -75 -660
-11 -64 -20 -121 -20 -126 0 -5 -4 -9 -9 -9 -12 0 -45 168 -86 440 -61 401
-79 492 -115 575 -27 63 -64 95 -110 95 -76 0 -124 -90 -170 -320 -52 -255
-80 -318 -163 -363 -40 -21 -56 -22 -328 -27 -304 -5 -319 -8 -319 -54 0 -12
7 -32 16 -44 15 -22 17 -22 294 -22 260 0 284 2 346 22 85 28 153 87 194 171
21 44 43 121 71 255 21 105 43 202 48 214 l9 23 10 -26 c20 -50 52 -220 82
-430 62 -443 98 -595 154 -654 41 -44 93 -48 130 -12 72 72 98 236 186 1192
33 355 49 497 56 504 2 2 4 0 4 -5 0 -5 7 -63 15 -129 21 -173 61 -618 90
-1010 74 -988 104 -1211 172 -1279 34 -34 68 -33 103 3 36 35 55 100 80 272
19 128 32 260 100 1029 33 373 68 677 80 699 14 26 56 -242 100 -639 55 -500
86 -641 156 -705 58 -54 137 -18 172 78 30 82 60 219 92 431 30 197 70 399 88
446 11 30 10 33 47 -124 40 -172 84 -243 180 -294 l50 -27 384 -3 c349 -3 385
-1 402 14 26 24 24 69 -3 88 -19 14 -73 16 -378 16 -325 0 -359 2 -396 19 -61
28 -96 89 -119 211 -18 91 -56 187 -86 218 -58 59 -139 39 -183 -46 -26 -50
-63 -216 -90 -399 -25 -169 -65 -379 -87 -457 -8 -28 -13 -36 -19 -25 -19 37
-54 271 -105 714 -48 409 -97 635 -150 685 -15 14 -37 23 -55 23 -106 0 -142
-173 -210 -1008 -33 -407 -87 -924 -99 -958 -14 -38 -37 190 -101 993 -91
1150 -118 1359 -192 1437 -25 27 -55 29 -85 8z"/>
</g>
</svg>
